<?xml version="1.0" encoding="UTF-8"?>
<svg id="Layer_1" data-name="Layer 1" xmlns="http://www.w3.org/2000/svg" xmlns:xlink="http://www.w3.org/1999/xlink" viewBox="0 0 503.19 468.8">
  <defs>
    <style>
      .cls-1 {
        fill: none;
        stroke: url(#linear-gradient);
        stroke-miterlimit: 10;
        stroke-width: 30px;
      }

      .cls-2 {
        fill: #f2f2f2;
      }
    </style>
    <linearGradient id="linear-gradient" x1="15.9" y1="234.4" x2="490.09" y2="234.4" gradientUnits="userSpaceOnUse">
      <stop offset="0" stop-color="#e80052"/>
      <stop offset=".13" stop-color="#e3005c"/>
      <stop offset=".36" stop-color="#d80079"/>
      <stop offset=".65" stop-color="#c500a8"/>
      <stop offset="1" stop-color="#ac00e8"/>
    </linearGradient>
  </defs>
  <g>
    <path class="cls-1" d="m139.12,109.12c-54.22,138.47,100.16,357.78,196.89,344.07,114.56-16.23,177.38-363.43,113.67-397.84C369.07,11.83,62.66,456.3,32.89,434.25,5.49,413.94,270.64,41.25,238.32,16.43c-12.75-9.8-75.4,31.89-99.21,92.69Z"/>
    <g>
      <path class="cls-2" d="m182,82.9l-9.94,55.49c7.99-13.99,15.49-27.43,22.21-39.94,11.2-20.87,19.25-37.35,24.61-50.36.34-.82.66-1.61.96-2.37l-18.86,3.35c-1.36,1.16-2.74,2.37-4.15,3.65-7.18,6.52-18.16,17.66-28.21,32.56l13.38-2.38Z"/>
      <path class="cls-2" d="m152.91,171.44c6.34-10.82,12.52-21.46,18.44-31.81l-25.85,2.36c-1.73,9.86-2.54,20.02-2.52,30.36l9.94-.91Z"/>
      <path class="cls-2" d="m144.91,303.16c-.58-1.24-1.15-2.48-1.72-3.72l-1.29,7.22c1-1.16,2-2.32,3.01-3.5Z"/>
      <path class="cls-2" d="m378.83,408.93l-78.13-11.72,8.64-120.27,130.34,1.98c2.69-9.76,5.17-19.75,7.41-29.89l-135.59-2.06,6.51-90.59,123.72-11.3,6.64,98c1.27-6.02,2.45-12.08,3.55-18.19,17.04-95.15,4.78-148.7-9.36-156.33-1.12-.61-3.05-1.25-6.09-1.2l3.24,47.78-89.23,8.15c-4.03,3.71-8.22,7.66-12.59,11.87-16.87,16.24-34.45,34.42-52.28,53.62l-4.15,57.75-47.2-.72c-8.67,9.87-17.29,19.77-25.81,29.61l70.86,1.08-8.35,116.27-32.81-4.92c15.34,15.93,30.93,28.53,45.85,37.22l63.08,9.47c11.72-5.15,22.38-14.49,31.77-25.57Z"/>
      <path class="cls-2" d="m90.38,365.65l-15.07-2.26c-.33.6-.66,1.2-.98,1.8-5.63,10.33-10.15,19.02-13.78,26.32l5.16.77c3.04-3.14,6.34-6.61,9.95-10.5,4.66-5.01,9.59-10.42,14.72-16.13Z"/>
      <path class="cls-2" d="m42.07,361.84c5.18-9.78,10.97-20.28,17.21-31.34l15.1-57.13,17.91.27c5.75-9.73,11.65-19.66,17.65-29.73l-27.66-.42,17.77-67.21,12.86-1.17c-.12-10.22.44-20.35,1.77-30.29l-6.46.59,13.7-51.82,8.29-1.47c5.93-12.39,13.2-23.87,21.16-34.23l-53.56,9.51L13.97,384.51l15.5,2.33c3.47-7.36,7.65-15.66,12.6-25Z"/>
      <path class="cls-2" d="m251.29,47.19c-2.43,7.15-5.86,15.53-10.33,25.25l53.68-9.53-4.73,65.9-82.2,7.51c-15.33,27.39-33.03,57.47-50.97,87.66l-3.3,17.46c3.61,12.37,7.88,24.83,12.93,36.82,9.26-10.75,19.03-22.08,28.57-33.05l-11.5-.17,13.91-77.63,73.43-6.7c15.74-16.76,31.27-32.68,46.3-47.15,1.45-1.39,2.88-2.76,4.3-4.11l3.73-51.92,90.24-16.02c16.42-5.83,30.03-5.49,41.46.68,3.01,1.63,5.82,3.67,8.43,6.1l-3.09-45.56-208.49,37.02c-.82,2.91-1.69,5.48-2.37,7.48Z"/>
      <path class="cls-2" d="m478.57,245.14c-6.17,30.32-14.42,59.58-24.23,86.24l6.08,89.8-47.74-7.16c-7.39,10.4-15.09,19.38-23.03,26.88l103.23,15.49-14.31-211.24Z"/>
      <path class="cls-2" d="m193.77,382.5c-.39-.5-.78-1.01-1.17-1.52l-32.65-4.9,6.03-33.68c-2.11-3.47-4.19-6.97-6.21-10.53-9.71,11.27-19.16,22.19-28.21,32.52l-1.3,7.23-4.47-.67c-8.45,9.59-16.49,18.57-24,26.73l122.16,18.33c-10.35-10.03-20.49-21.27-30.18-33.53Z"/>
      <path class="cls-2" d="m132.79,274.25c-.77-2.08-1.54-4.17-2.27-6.26-1.23,2.06-2.45,4.12-3.67,6.17l5.94.09Z"/>
    </g>
  </g>
  <path class="cls-2" d="m151.35,57.88l49.63-8.81c-4.53,6.31-9.89,13.11-16.2,20.08-5.53,6.11-10.99,11.47-16.16,16.14-12.81,2.27-25.62,4.55-38.43,6.82.08-3.73.8-13.21,7.44-22.39,4.75-6.58,10.46-10.13,13.73-11.83Z"/>
  <polygon class="cls-2" points="29.47 386.84 60.55 391.51 75.31 363.38 42.2 358.09 29.47 386.84"/>
  <path class="cls-2" d="m378.83,408.93l33.85,5.08c-1.42,3.6-3.68,8.23-7.32,13-5.46,7.15-11.6,11.46-15.71,13.88-14.2-2.13-28.39-4.26-42.59-6.39,2.99-4.29,7.65-10,14.5-15.42,6.41-5.08,12.6-8.21,17.26-10.15Z"/>
  <polygon class="cls-2" points="285.59 188.76 289.9 128.81 350.46 123.28 318 156.37 311.53 186.64 285.59 188.76"/>
  <polygon class="cls-2" points="270.76 160.68 318 156.37 321.37 109.42 289.9 128.81 270.76 160.68"/>
  <polygon class="cls-2" points="59.28 330.5 51.83 360.64 31.61 357.52 59.28 330.5"/>
</svg>