<?xml version="1.0" encoding="UTF-8"?>
<svg id="Layer_1" data-name="Layer 1" xmlns="http://www.w3.org/2000/svg" viewBox="0 0 800 500">
  <defs>
    <style>
      .cls-1 {
        fill: none;
      }

      .cls-2 {
        fill: #f2f2f2;
      }
    </style>
  </defs>
  <polygon class="cls-1" points="214.27 416.37 140.66 429.32 153.09 500 170.26 500 227.22 489.98 214.27 416.37"/>
  <rect class="cls-1" x="615.69" y="213.28" width="74.74" height="74.74" transform="translate(-33.55 116.94) rotate(-9.98)"/>
  <rect class="cls-1" x="594.11" y="90.61" width="74.74" height="74.74" transform="translate(-12.62 111.35) rotate(-9.98)"/>
  <polygon class="cls-1" points="342.18 0 0 0 0 500 84.44 500 6.85 58.99 342.18 0"/>
  <rect class="cls-1" x="391.92" y="379.12" width="74.74" height="74.74" transform="translate(-65.67 80.68) rotate(-9.98)"/>
  <polygon class="cls-1" points="88.86 134.9 653.17 35.63 646.91 0 629.74 0 82.08 96.35 88.86 134.9"/>
  <polygon class="cls-1" points="715.56 0 793.15 441.01 457.82 500 800 500 800 0 715.56 0"/>
  <rect class="cls-1" x="247.66" y="278.03" width="74.74" height="74.74" transform="translate(-50.34 54.16) rotate(-9.98)"/>
  <rect class="cls-1" x="637.27" y="335.96" width="74.74" height="74.74" transform="translate(-54.48 122.54) rotate(-9.98)"/>
  <rect class="cls-1" x="514.6" y="357.54" width="74.74" height="74.74" transform="translate(-60.08 101.61) rotate(-9.98)"/>
  <path class="cls-1" d="m701.11,0h-39.75l8.3,47.18L77.31,151.39l-11.72-66.6L547.58,0h-123.24L23.34,70.55l75.55,429.45h39.75l-14.47-82.23,101.65-17.88,17.61,100.11h132.23l401-70.55L701.11,0Zm11.72,292.53l-101.65,17.88-17.88-101.65,101.65-17.88,17.88,101.65Zm-39.46-224.32l17.88,101.65-101.65,17.88-17.88-101.65,101.65-17.88Zm-83.21,245.9l-101.65,17.88-17.88-101.65,101.65-17.88,17.88,101.65Zm-39.46-224.32l17.88,101.65-101.65,17.88-17.88-101.65,101.65-17.88Zm-83.21,245.9l-101.65,17.88-17.88-101.65,101.65-17.88,17.88,101.65Zm-39.46-224.32l17.88,101.65-101.65,17.88-17.88-101.65,101.65-17.88Zm-122.68,21.58l17.88,101.65-101.65,17.88-17.88-101.65,101.65-17.88Zm-224.32,39.46l101.65-17.88,17.88,101.65-101.65,17.88-17.88-101.65Zm39.46,224.32l-17.88-101.65,101.65-17.88,17.88,101.65-101.65,17.88Zm104.79-123.23l101.65-17.88,17.88,101.65-101.65,17.88-17.88-101.65Zm39.46,224.32l-17.88-101.65,101.65-17.88,17.88,101.65-101.65,17.88Zm122.68-21.58l-17.88-101.65,101.65-17.88,17.88,101.65-101.65,17.88Zm122.68-21.58l-17.88-101.65,101.65-17.88,17.88,101.65-101.65,17.88Zm104.79-123.23l101.65-17.88,17.88,101.65-101.65,17.88-17.88-101.65Z"/>
  <rect class="cls-1" x="370.34" y="256.44" width="74.74" height="74.74" transform="translate(-44.74 75.09) rotate(-9.98)"/>
  <rect class="cls-1" x="348.76" y="133.77" width="74.74" height="74.74" transform="translate(-23.81 69.49) rotate(-9.98)"/>
  <rect class="cls-1" x="269.25" y="400.7" width="74.74" height="74.74" transform="translate(-71.26 59.75) rotate(-9.98)"/>
  <rect class="cls-1" x="103.41" y="176.93" width="74.74" height="74.74" transform="translate(-35 27.63) rotate(-9.98)"/>
  <rect class="cls-1" x="226.08" y="155.35" width="74.74" height="74.74" transform="translate(-29.41 48.56) rotate(-9.98)"/>
  <rect class="cls-1" x="471.43" y="112.19" width="74.74" height="74.74" transform="translate(-18.22 90.42) rotate(-9.98)"/>
  <rect class="cls-1" x="124.99" y="299.61" width="74.74" height="74.74" transform="translate(-55.93 33.23) rotate(-9.98)"/>
  <rect class="cls-1" x="493.02" y="234.86" width="74.74" height="74.74" transform="translate(-39.15 96.01) rotate(-9.98)"/>
  <polygon class="cls-2" points="715.56 0 701.11 0 776.66 429.45 375.66 500 457.82 500 793.15 441.01 715.56 0"/>
  <polygon class="cls-2" points="424.34 0 342.18 0 6.85 58.99 84.44 500 98.89 500 23.34 70.55 424.34 0"/>
  <polygon class="cls-2" points="77.31 151.39 669.66 47.18 661.36 0 646.91 0 653.17 35.63 88.86 134.9 82.08 96.35 629.74 0 547.58 0 65.6 84.79 77.31 151.39"/>
  <path class="cls-2" d="m182.66,154.54l-101.65,17.88,17.88,101.65,101.65-17.88-17.88-101.65Zm-85.16,29.44l73.61-12.95,12.95,73.61-73.61,12.95-12.95-73.61Z"/>
  <path class="cls-2" d="m323.21,234.6l-17.88-101.65-101.65,17.88,17.88,101.65,101.65-17.88Zm-29.44-85.16l12.95,73.61-73.61,12.95-12.95-73.61,73.61-12.95Z"/>
  <path class="cls-2" d="m445.89,213.02l-17.88-101.65-101.65,17.88,17.88,101.65,101.65-17.88Zm-29.44-85.16l12.95,73.61-73.61,12.95-12.95-73.61,73.61-12.95Z"/>
  <path class="cls-2" d="m568.57,191.44l-17.88-101.65-101.65,17.88,17.88,101.65,101.65-17.88Zm-29.44-85.16l12.95,73.61-73.61,12.95-12.95-73.61,73.61-12.95Z"/>
  <path class="cls-2" d="m691.24,169.86l-17.88-101.65-101.65,17.88,17.88,101.65,101.65-17.88Zm-29.44-85.16l12.95,73.61-73.61,12.95-12.95-73.61,73.61-12.95Z"/>
  <path class="cls-2" d="m102.59,295.09l17.88,101.65,101.65-17.88-17.88-101.65-101.65,17.88Zm29.44,85.16l-12.95-73.61,73.61-12.95,12.95,73.61-73.61,12.95Z"/>
  <path class="cls-2" d="m326.91,255.63l-101.65,17.88,17.88,101.65,101.65-17.88-17.88-101.65Zm-85.16,29.44l73.61-12.95,12.95,73.61-73.61,12.95-12.95-73.61Z"/>
  <path class="cls-2" d="m347.94,251.93l17.88,101.65,101.65-17.88-17.88-101.65-101.65,17.88Zm29.44,85.16l-12.95-73.61,73.61-12.95,12.95,73.61-73.61,12.95Z"/>
  <path class="cls-2" d="m470.62,230.35l17.88,101.65,101.65-17.88-17.88-101.65-101.65,17.88Zm29.44,85.16l-12.95-73.61,73.61-12.95,12.95,73.61-73.61,12.95Z"/>
  <path class="cls-2" d="m611.18,310.41l101.65-17.88-17.88-101.65-101.65,17.88,17.88,101.65Zm85.16-29.44l-73.61,12.95-12.95-73.61,73.61-12.95,12.95,73.61Z"/>
  <polygon class="cls-2" points="124.17 417.77 138.64 500 153.09 500 140.66 429.32 214.27 416.37 227.22 489.98 170.26 500 243.43 500 225.82 399.89 124.17 417.77"/>
  <path class="cls-2" d="m246.85,396.19l17.88,101.65,101.65-17.88-17.88-101.65-101.65,17.88Zm29.44,85.16l-12.95-73.61,73.61-12.95,12.95,73.61-73.61,12.95Z"/>
  <path class="cls-2" d="m369.53,374.61l17.88,101.65,101.65-17.88-17.88-101.65-101.65,17.88Zm29.44,85.16l-12.95-73.61,73.61-12.95,12.95,73.61-73.61,12.95Z"/>
  <path class="cls-2" d="m492.2,353.02l17.88,101.65,101.65-17.88-17.88-101.65-101.65,17.88Zm29.44,85.16l-12.95-73.61,73.61-12.95,12.95,73.61-73.61,12.95Z"/>
  <path class="cls-2" d="m716.52,313.56l-101.65,17.88,17.88,101.65,101.65-17.88-17.88-101.65Zm-85.16,29.44l73.61-12.95,12.95,73.61-73.61,12.95-12.95-73.61Z"/>
</svg>