<?xml version="1.0" encoding="UTF-8"?>
<svg id="Layer_1" data-name="Layer 1" xmlns="http://www.w3.org/2000/svg" viewBox="0 0 600 500">
  <defs>
    <style>
      .cls-1 {
        fill: none;
      }

      .cls-2 {
        fill: #f2f2f2;
      }
    </style>
  </defs>
  <path class="cls-1" d="m506.03,367.46l-41.73-12.07c-1.97,3.8-4.05,7.5-6.19,11.05-27.06,44.8-69.94,76.38-120.75,88.93-50.81,12.55-103.47,4.56-148.27-22.5-3.55-2.14-7.11-4.46-10.62-6.9l-31.32,30.11c30.02,22.52,64.13,37.32,99.83,43.91h86.01c4.88-.89,9.75-1.92,14.61-3.12,70.1-17.31,127.54-64.33,158.42-129.42Z"/>
  <path class="cls-1" d="m524.69,406.65c11.6-19.21,20.71-39.51,27.26-60.66l-102.69-29.69c-17.17,53.17-60.63,96.5-118.86,110.88-13.44,3.32-26.9,4.91-40.14,4.91-44.16,0-85.94-17.65-116.67-47.7l-77.05,74.07c8.24,8.24,17.02,15.98,26.32,23.17,8.63,6.67,17.62,12.8,26.93,18.37h58.83c-25.98-9.1-50.56-22.53-72.19-39.56l-4.51-3.55,45.65-43.88,3.39,2.46c4.38,3.18,8.87,6.16,13.34,8.86,42.51,25.67,92.48,33.26,140.7,21.35,48.22-11.91,88.91-41.88,114.58-84.39,2.7-4.46,5.28-9.19,7.68-14.05l1.85-3.75,60.83,17.59-2.34,5.25c-15.09,33.83-37.93,64.37-66.04,88.32-23.6,20.1-50.2,35.3-79.29,45.37h58.9c7.95-4.76,15.67-9.94,23.14-15.53,28.34-21.2,52.02-47.38,70.4-77.81Z"/>
  <path class="cls-1" d="m156.08,184.05c-21.66,35.87-28.06,78.04-18.01,118.72,4.32,17.49,11.49,33.91,21.32,48.8,4.35,6.6,9.21,12.82,14.49,18.66l26.47-25.45,6.93,7.21-26.47,25.45c4.28,4.17,8.79,8.11,13.55,11.79,27.41,21.19,61.47,32.85,95.9,32.85,12.65,0,25.35-1.55,37.75-4.62,40.69-10.05,75.02-35.34,96.69-71.21,6.3-10.44,11.31-21.42,15-32.73l-35.32-10.21,2.78-9.61,35.34,10.22c6.35-24.77,6.52-50.87.22-76.39-4.32-17.49-11.49-33.91-21.32-48.8-9.5-14.39-21.26-27.06-34.97-37.66-27.41-21.19-61.47-32.85-95.9-32.85h0c-11,0-22.03,1.18-32.87,3.5l9.59,38.82-9.71,2.4-9.59-38.81c-38.57,10.81-71.05,35.49-91.85,69.93Z"/>
  <path class="cls-1" d="m391.36,0c83.92,32.04,151.3,103.31,174.47,197.13,11.96,48.45,10.68,97.05-1.51,142.03l32.08,9.28-2.78,9.61-32.08-9.28c-18.91,61.11-58.18,114.82-111.83,151.23h150.3V0h-208.64Z"/>
  <path class="cls-1" d="m89.33,465.38l-24.07,23.14-6.93-7.21,24.06-23.13c-31.73-34.13-55.48-76.56-67.44-125.01C-19.83,192.38,57.14,50.18,189.41,0H0v500h131.18c-14.98-10.15-29.01-21.74-41.86-34.62Z"/>
  <path class="cls-1" d="m290.51,98.22c74.97,0,143.11,50.87,161.9,126.92,6.86,27.78,6.32,55.66-.36,81.56l102.67,29.69c2.5-9.28,4.54-18.7,6.06-28.27,5.76-36.18,4.2-72.71-4.67-108.59-7.54-30.51-20.05-59.16-37.19-85.14-16.57-25.11-37.09-47.22-61.01-65.7-23.69-18.31-50.04-32.55-78.3-42.33-6.96-2.41-14-4.52-21.09-6.35h-128.48l25.19,102.01c11.81-2.55,23.63-3.78,35.27-3.78Zm141.9-37.2c49.6,34.48,84.9,85.8,99.4,144.5,7.76,31.44,9.35,63.51,4.72,95.34l-.83,5.68-60.78-17.58.44-4.17c2.26-21.43.76-43.05-4.47-64.24-11.91-48.22-41.88-88.91-84.39-114.58-32.93-19.89-70.43-29.02-108.45-26.41l-4.19.29-15.17-61.44,5.7-.61c59.22-6.3,118.89,9.05,168.04,43.21Z"/>
  <path class="cls-1" d="m128.36,305.17c-21.7-87.86,30.57-176.65,117.18-200.76L219.92.68c-34.01,9.04-65.43,24.21-93.44,45.16-28.34,21.2-52.02,47.38-70.4,77.81-18.38,30.44-30.52,63.59-36.09,98.54-5.76,36.18-4.2,72.71,4.67,108.59,7.54,30.51,20.05,59.16,37.19,85.14,8.28,12.56,17.56,24.36,27.75,35.34l77.06-74.08c-17.97-19.81-31.42-44.23-38.29-72.01Zm-39.2,106.19c-18.92-26.01-32.44-55.14-40.21-86.58-14.5-58.71-7.15-120.56,20.7-174.16,27.59-53.11,73.26-94.47,128.6-116.46l5.33-2.12,15.17,61.44-3.84,1.7c-34.87,15.39-63.81,40.93-83.69,73.86-25.67,42.51-33.26,92.48-21.35,140.7,5.23,21.19,13.96,41.02,25.94,58.94l2.33,3.48-45.61,43.85-3.37-4.64Z"/>
  <path class="cls-1" d="m122.66,163.87c20.22-33.48,49.34-59.72,84.38-76.1l-10.41-42.14C89.83,91.1,30.66,209,58.66,322.38c6.99,28.3,18.84,54.65,35.26,78.41l31.28-30.08c-11.45-17.95-19.87-37.64-25.04-58.58-12.55-50.81-4.56-103.46,22.5-148.27Z"/>
  <path class="cls-1" d="m391.67,97.43c44.8,27.06,76.38,69.94,88.93,120.75,5.17,20.95,6.89,42.29,5.11,63.51l41.69,12.05c3.47-28.67,1.7-57.51-5.29-85.81-28-113.38-135.25-190.17-250.95-180.7l10.41,42.14c38.64-1.83,76.62,7.84,110.11,28.07Z"/>
  <path class="cls-2" d="m96.53,458.46l-7.2,6.93c12.85,12.88,26.87,24.47,41.86,34.62h18.59c-9.3-5.57-18.29-11.7-26.93-18.37-9.3-7.19-18.08-14.93-26.32-23.17Z"/>
  <path class="cls-2" d="m14.94,333.18c11.96,48.45,35.71,90.88,67.44,125.01l7.2-6.93c-10.19-10.98-19.46-22.78-27.75-35.34-17.14-25.98-29.65-54.63-37.19-85.14-8.86-35.88-10.43-72.41-4.67-108.59,5.57-34.95,17.71-68.1,36.09-98.54,18.38-30.44,42.07-56.62,70.4-77.81C154.49,24.89,185.9,9.72,219.92.68l-.17-.68h-30.34C57.14,50.18-19.83,192.38,14.94,333.18Z"/>
  <path class="cls-2" d="m457.92,48.69c23.91,18.48,44.44,40.59,61.01,65.7,17.14,25.98,29.65,54.63,37.19,85.14,8.86,35.88,10.43,72.41,4.67,108.59-1.52,9.57-3.56,18.99-6.06,28.27l9.59,2.77c12.19-44.97,13.48-93.58,1.51-142.03C542.66,103.31,475.28,32.04,391.36,0h-32.83c7.09,1.83,14.13,3.95,21.09,6.35,28.26,9.78,54.61,24.02,78.3,42.33Z"/>
  <path class="cls-2" d="m561.53,348.77l-9.58-2.77c-6.55,21.15-15.66,41.44-27.26,60.66-18.38,30.44-42.07,56.62-70.4,77.81-7.48,5.59-15.2,10.77-23.14,15.53h18.56c53.66-36.41,92.92-90.12,111.83-151.23Z"/>
  <path class="cls-2" d="m128.36,305.17c6.86,27.78,20.32,52.2,38.29,72.01l7.22-6.95c-5.28-5.84-10.13-12.06-14.49-18.66-9.82-14.89-17-31.31-21.32-48.8-10.05-40.69-3.65-82.85,18.01-118.72,20.8-34.44,53.29-59.12,91.85-69.93l-2.4-9.71c-86.6,24.11-138.87,112.9-117.18,200.76Z"/>
  <path class="cls-2" d="m290.52,108.22c34.43,0,68.49,11.67,95.9,32.85,13.71,10.59,25.47,23.26,34.97,37.66,9.82,14.89,17,31.31,21.32,48.8,6.3,25.52,6.13,51.63-.22,76.39l9.57,2.77c6.68-25.9,7.22-53.77.36-81.56-18.78-76.05-86.93-126.92-161.9-126.92-11.64,0-23.46,1.23-35.27,3.78l2.4,9.71c10.84-2.32,21.88-3.5,32.87-3.5h0Z"/>
  <path class="cls-2" d="m424.69,346.26c-21.66,35.87-56,61.16-96.69,71.21-12.4,3.06-25.1,4.62-37.75,4.62-34.43,0-68.49-11.67-95.9-32.85-4.76-3.68-9.27-7.63-13.55-11.79l-7.22,6.94c30.73,30.05,72.52,47.7,116.67,47.7,13.24,0,26.71-1.59,40.14-4.91,58.23-14.38,101.69-57.71,118.86-110.88l-9.58-2.77c-3.69,11.31-8.69,22.29-15,32.73Z"/>
  <path class="cls-2" d="m517.57,366.31l2.34-5.25-60.83-17.59-1.85,3.75c-2.4,4.86-4.98,9.58-7.68,14.05-25.67,42.51-66.37,72.49-114.58,84.39-48.21,11.91-98.18,4.33-140.7-21.35-4.47-2.7-8.96-5.68-13.34-8.86l-3.39-2.46-45.65,43.88,4.51,3.55c21.63,17.03,46.21,30.45,72.19,39.56h38.39c-35.7-6.59-69.82-21.39-99.83-43.91l31.32-30.11c3.51,2.44,7.07,4.75,10.62,6.9,44.8,27.05,97.45,35.04,148.27,22.5,50.81-12.55,93.69-44.13,120.75-88.93,2.14-3.55,4.22-7.25,6.19-11.05l41.73,12.07c-30.88,65.09-88.32,112.1-158.42,129.42-4.86,1.2-9.73,2.23-14.61,3.12h39.24c29.09-10.07,55.69-25.26,79.29-45.37,28.11-23.95,50.95-54.49,66.04-88.32Z"/>
  <path class="cls-2" d="m135.81,368.67c-11.98-17.92-20.71-37.74-25.94-58.94-11.91-48.22-4.33-98.18,21.35-140.7,19.89-32.93,48.83-58.47,83.69-73.86l3.84-1.7-15.17-61.44-5.33,2.12c-55.34,21.99-101.01,63.35-128.6,116.46-27.85,53.6-35.2,115.46-20.7,174.16,7.76,31.44,21.29,60.57,40.21,86.58l3.37,4.64,45.61-43.85-2.33-3.48Zm-41.89,32.12c-16.42-23.76-28.27-50.11-35.26-78.41C30.66,209,89.83,91.1,196.64,45.63l10.41,42.14c-35.04,16.37-64.16,42.61-84.38,76.1-27.05,44.8-35.04,97.46-22.5,148.27,5.17,20.95,13.59,40.63,25.04,58.58l-31.28,30.08Z"/>
  <path class="cls-2" d="m273.86,79.87l4.19-.29c38.02-2.61,75.52,6.52,108.45,26.41,42.51,25.67,72.49,66.37,84.39,114.58,5.23,21.19,6.74,42.8,4.47,64.24l-.44,4.17,60.78,17.58.83-5.68c4.63-31.83,3.04-63.91-4.72-95.34-14.5-58.71-49.8-110.03-99.4-144.5-49.14-34.16-108.82-49.5-168.04-43.21l-5.7.61,15.17,61.44Zm248.25,128.06c6.99,28.3,8.77,57.14,5.29,85.81l-41.69-12.05c1.78-21.22.07-42.56-5.11-63.51-12.55-50.81-44.13-93.69-88.93-120.75-33.49-20.22-71.47-29.89-110.11-28.07l-10.41-42.14c115.71-9.47,222.95,67.32,250.95,180.7Z"/>
  <polygon class="cls-2" points="207.27 352 200.34 344.79 173.87 370.24 166.64 377.18 89.59 451.26 82.38 458.19 58.33 481.32 65.26 488.53 89.33 465.38 96.53 458.46 173.58 384.39 180.8 377.44 207.27 352"/>
  <polygon class="cls-2" points="452.05 306.7 442.48 303.93 407.14 293.71 404.37 303.32 439.68 313.53 449.26 316.3 551.95 346 561.53 348.77 593.61 358.04 596.39 348.44 564.31 339.16 554.72 336.39 452.05 306.7"/>
  <polygon class="cls-2" points="245.53 104.41 247.93 114.12 257.52 152.94 267.23 150.54 257.64 111.72 255.24 102.01 230.05 0 219.75 0 219.92 .68 245.53 104.41"/>
</svg>