<?xml version="1.0" encoding="UTF-8"?>
<svg id="Layer_1" data-name="Layer 1" xmlns="http://www.w3.org/2000/svg" viewBox="0 0 700 500">
  <defs>
    <style>
      .cls-1 {
        fill: none;
      }

      .cls-2 {
        fill: #f2f2f2;
      }
    </style>
  </defs>
  <path class="cls-1" d="m466.09,310.24l169.15-43.67-43.67-169.15-169.15,43.67,43.67,169.15Zm42.45-174.71l86.74,51.14-51.14,86.74-33.61-19.82,16.68-28.28-57.73,14.91-10.2-39.49,57.73-14.91-28.28-16.68,19.82-33.61Z"/>
  <polygon class="cls-1" points="589.06 87.74 566.41 0 385.99 0 419.92 131.41 589.06 87.74"/>
  <rect class="cls-1" x="262.65" y="162.65" width="174.69" height="174.69" transform="translate(-51.39 95.44) rotate(-14.48)"/>
  <rect class="cls-1" x="487.65" y="295.31" width="174.69" height="174.69" transform="translate(-77.4 155.9) rotate(-14.48)"/>
  <polygon class="cls-1" points="471.46 207.91 476.66 228.03 548.08 209.59 524.22 250.05 540.61 259.71 581.59 190.2 512.08 149.22 502.42 165.61 542.88 189.47 471.46 207.91"/>
  <rect class="cls-1" x="37.65" y="30" width="174.69" height="174.69" transform="translate(-25.37 34.98) rotate(-14.48)"/>
  <polygon class="cls-1" points="265.61 97.58 289.47 57.12 307.91 128.54 328.03 123.34 309.59 51.92 350.05 75.78 359.72 59.39 290.2 18.41 249.22 87.92 265.61 97.58"/>
  <path class="cls-1" d="m108.44,402.58l169.15-43.67-43.67-169.15-169.15,43.67,43.67,169.15Zm81.04-156.17l-16.68,28.28,57.73-14.91,10.2,39.49-57.73,14.91,28.28,16.68-19.82,33.61-86.74-51.14,51.14-86.74,33.61,19.82Z"/>
  <polygon class="cls-1" points="190.09 0 0 0 0 500 123.26 500 6.41 47.43 190.09 0"/>
  <polygon class="cls-1" points="434.39 402.42 410.53 442.88 392.09 371.46 371.97 376.66 390.41 448.08 349.95 424.22 340.28 440.61 409.79 481.59 450.78 412.08 434.39 402.42"/>
  <path class="cls-1" d="m458.91,322.42l-169.15,43.67,34.57,133.91h145.57l32.67-8.44-43.67-169.15Zm-132.32,121.73l19.82-33.61,28.28,16.68-14.91-57.73,39.49-10.2,14.91,57.73,16.68-28.28,33.61,19.82-51.14,86.74-86.74-51.14Z"/>
  <polygon class="cls-1" points="110.94 412.26 133.59 500 314.01 500 280.08 368.59 110.94 412.26"/>
  <polygon class="cls-1" points="187.92 350.78 197.58 334.39 157.12 310.53 228.54 292.09 223.34 271.97 151.92 290.41 175.78 249.95 159.39 240.28 118.41 309.79 187.92 350.78"/>
  <path class="cls-1" d="m241.09,177.58l169.15-43.67L375.66,0h-145.57l-32.67,8.44,43.67,169.15Zm132.32-121.72l-19.82,33.61-28.28-16.68,14.91,57.73-39.49,10.2-14.91-57.73-16.68,28.28-33.61-19.82L286.67,4.72l86.74,51.14Z"/>
  <polygon class="cls-1" points="576.74 0 693.59 452.57 509.91 500 700 500 700 0 576.74 0"/>
  <polygon class="cls-2" points="106.09 413.51 103.59 403.83 108.44 402.58 64.76 233.44 59.92 234.69 57.42 225 62.26 223.75 18.59 54.61 187.74 10.94 186.49 6.09 196.17 3.59 197.42 8.44 230.09 0 190.09 0 6.41 47.43 123.26 500 133.59 500 110.94 412.26 106.09 413.51"/>
  <polygon class="cls-2" points="576.74 0 566.41 0 589.06 87.74 593.91 86.49 596.41 96.17 591.56 97.42 635.24 266.56 640.08 265.31 642.58 275 637.74 276.25 681.41 445.39 512.26 489.07 513.51 493.91 503.83 496.41 502.58 491.56 469.91 500 509.91 500 693.59 452.57 576.74 0"/>
  <rect class="cls-2" x="285.74" y="334.41" width="174.69" height="10" transform="translate(-73.01 104.05) rotate(-14.48)"/>
  <polygon class="cls-2" points="468.59 319.92 637.74 276.25 642.58 275 640.08 265.31 635.24 266.56 466.09 310.24 468.59 319.92"/>
  <polygon class="cls-2" points="103.59 403.83 106.09 413.51 110.94 412.26 280.08 368.59 277.58 358.91 108.44 402.58 103.59 403.83"/>
  <polygon class="cls-2" points="422.42 141.09 591.56 97.42 596.41 96.17 593.91 86.49 589.06 87.74 419.92 131.41 422.42 141.09"/>
  <rect class="cls-2" x="239.57" y="155.59" width="174.69" height="10" transform="translate(-29.77 86.83) rotate(-14.48)"/>
  <polygon class="cls-2" points="57.42 225 59.92 234.69 64.76 233.44 233.91 189.76 231.41 180.08 62.26 223.75 57.42 225"/>
  <polygon class="cls-2" points="412.74 143.59 456.41 312.74 458.91 322.42 502.58 491.56 503.83 496.41 513.51 493.91 512.26 489.07 468.59 319.92 466.09 310.24 422.42 141.09 419.92 131.41 385.99 0 375.66 0 410.24 133.91 412.74 143.59"/>
  <polygon class="cls-2" points="287.26 356.41 243.59 187.26 241.09 177.58 197.42 8.44 196.17 3.59 186.49 6.09 187.74 10.94 231.41 180.08 233.91 189.76 277.58 358.91 280.08 368.59 314.01 500 324.34 500 289.76 366.09 287.26 356.41"/>
  <path class="cls-2" d="m191.46,364.47l19.82-33.61-28.28-16.68,57.73-14.91-10.2-39.49-57.73,14.91,16.68-28.28-33.61-19.82-51.14,86.74,86.74,51.14Zm-32.06-124.19l16.39,9.66-23.86,40.47,71.42-18.44,5.2,20.12-71.42,18.44,40.47,23.86-9.66,16.39-69.51-40.98,40.98-69.51Z"/>
  <path class="cls-2" d="m269.14,111.27l16.68-28.28,14.91,57.73,39.49-10.2-14.91-57.73,28.28,16.68,19.82-33.61L286.67,4.72l-51.14,86.74,33.61,19.82Zm21.06-92.86l69.51,40.98-9.66,16.39-40.47-23.86,18.44,71.42-20.12,5.2-18.44-71.42-23.86,40.47-16.39-9.66,40.98-69.51Z"/>
  <path class="cls-2" d="m459.28,200.73l10.2,39.49,57.73-14.91-16.68,28.28,33.61,19.82,51.14-86.74-86.74-51.14-19.82,33.61,28.28,16.68-57.73,14.91Zm43.14-35.12l9.66-16.39,69.51,40.98-40.98,69.51-16.39-9.66,23.86-40.47-71.42,18.44-5.2-20.12,71.42-18.44-40.47-23.86Z"/>
  <path class="cls-2" d="m430.86,388.73l-16.68,28.28-14.91-57.73-39.49,10.2,14.91,57.73-28.28-16.68-19.82,33.61,86.74,51.14,51.14-86.74-33.61-19.82Zm-21.06,92.86l-69.51-40.98,9.66-16.39,40.47,23.86-18.44-71.42,20.12-5.2,18.44,71.42,23.86-40.47,16.39,9.66-40.98,69.51Z"/>
</svg>