<?xml version="1.0" encoding="UTF-8"?>
<svg id="Layer_1" data-name="Layer 1" xmlns="http://www.w3.org/2000/svg" viewBox="0 0 435.02 400">
  <defs>
    <style>
      .cls-1 {
        fill: #f2f2f2;
      }
    </style>
  </defs>
  <path class="cls-1" d="m217.51,35.1l51.96,105.27,2.33,4.71,5.2.76,116.18,16.88-84.07,81.94-3.76,3.67.89,5.18,19.85,115.71-103.91-54.63-4.65-2.45-4.65,2.45-103.91,54.63,19.85-115.71.89-5.18-3.76-3.67-84.07-81.94,116.18-16.88,5.2-.76,2.33-4.71,51.96-105.27m0-22.6l-60.92,123.44-136.23,19.79,98.57,96.09-23.27,135.68,121.84-64.06,121.84,64.06-23.27-135.68,98.57-96.09-136.23-19.79L217.51,12.5h0Z"/>
</svg>