<?xml version="1.0" encoding="UTF-8"?>
<svg id="Layer_1" data-name="Layer 1" xmlns="http://www.w3.org/2000/svg" viewBox="0 0 435.02 400">
  <defs>
    <style>
      .cls-1 {
        fill: #f2f2f2;
      }
    </style>
  </defs>
  <path class="cls-1" d="m316.73,22.6l27.59,55.9,2.33,4.71,5.2.76,61.68,8.96-44.64,43.51-3.76,3.67.89,5.18,10.54,61.44-55.17-29.01-4.65-2.45-4.65,2.45-55.17,29.01,10.54-61.44.89-5.18-3.76-3.67-44.64-43.51,61.68-8.96,5.2-.76,2.33-4.71,27.59-55.9m0-22.6l-36.55,74.07-81.74,11.88,59.14,57.65-13.96,81.41,73.11-38.43,73.11,38.43-13.96-81.41,59.14-57.65-81.74-11.88L316.73,0h0Z"/>
  <path class="cls-1" d="m118.29,197.6l27.59,55.9,2.33,4.71,5.2.76,61.68,8.96-44.64,43.51-3.76,3.67.89,5.18,10.54,61.44-55.17-29.01-4.65-2.45-4.65,2.45-55.17,29.01,10.54-61.44.89-5.18-3.76-3.67-44.64-43.51,61.68-8.96,5.2-.76,2.33-4.71,27.59-55.9m0-22.6l-36.55,74.07L0,260.94l59.14,57.65-13.96,81.41,73.11-38.43,73.11,38.43-13.96-81.41,59.14-57.65-81.74-11.88-36.55-74.07h0Z"/>
</svg>