<?xml version="1.0" encoding="UTF-8"?>
<svg id="Layer_1" data-name="Layer 1" xmlns="http://www.w3.org/2000/svg" viewBox="0 0 435.02 400">
  <defs>
    <style>
      .cls-1 {
        fill: #f2f2f2;
      }
    </style>
  </defs>
  <path class="cls-1" d="m332.52,22.6l22.71,46.01,2.33,4.71,5.2.76,50.78,7.38-36.74,35.82-3.76,3.67.89,5.18,8.67,50.57-45.42-23.88-4.65-2.45-4.65,2.45-45.42,23.88,8.67-50.57.89-5.18-3.76-3.67-36.74-35.82,50.78-7.38,5.2-.76,2.33-4.71,22.71-46.01m0-22.6l-31.68,64.18-70.83,10.29,51.25,49.96-12.1,70.54,63.35-33.31,63.35,33.31-12.1-70.54,51.25-49.96-70.83-10.29L332.52,0h0Z"/>
  <path class="cls-1" d="m332.52,227.62l22.71,46.01,2.33,4.71,5.2.76,50.78,7.38-36.74,35.82-3.76,3.67.89,5.18,8.67,50.57-45.42-23.88-4.65-2.45-4.65,2.45-45.42,23.88,8.67-50.57.89-5.18-3.76-3.67-36.74-35.82,50.78-7.38,5.2-.76,2.33-4.71,22.71-46.01m0-22.6l-31.68,64.18-70.83,10.29,51.25,49.96-12.1,70.54,63.35-33.31,63.35,33.31-12.1-70.54,51.25-49.96-70.83-10.29-31.68-64.18h0Z"/>
  <path class="cls-1" d="m102.51,22.6l22.71,46.01,2.33,4.71,5.2.76,50.78,7.38-36.74,35.82-3.76,3.67.89,5.18,8.67,50.57-45.42-23.88-4.65-2.45-4.65,2.45-45.42,23.88,8.67-50.57.89-5.18-3.76-3.67-36.74-35.82,50.78-7.38,5.2-.76,2.33-4.71,22.71-46.01m0-22.6l-31.68,64.18L0,74.47l51.25,49.96-12.1,70.54,63.35-33.31,63.35,33.31-12.1-70.54,51.25-49.96-70.83-10.29L102.51,0h0Z"/>
  <path class="cls-1" d="m102.51,227.62l22.71,46.01,2.33,4.71,5.2.76,50.78,7.38-36.74,35.82-3.76,3.67.89,5.18,8.67,50.57-45.42-23.88-4.65-2.45-4.65,2.45-45.42,23.88,8.67-50.57.89-5.18-3.76-3.67-36.74-35.82,50.78-7.38,5.2-.76,2.33-4.71,22.71-46.01m0-22.6l-31.68,64.18L0,279.5l51.25,49.96-12.1,70.54,63.35-33.31,63.35,33.31-12.1-70.54,51.25-49.96-70.83-10.29-31.68-64.18h0Z"/>
</svg>