<?xml version="1.0" encoding="UTF-8"?>
<svg id="Layer_1" data-name="Layer 1" xmlns="http://www.w3.org/2000/svg" viewBox="0 0 600 500">
  <defs>
    <style>
      .cls-1 {
        fill: none;
      }

      .cls-2 {
        fill: #f2f2f2;
      }
    </style>
  </defs>
  <polygon class="cls-1" points="543.9 0 494.23 0 512.18 144.88 512.02 145.68 440.76 500 487.95 500 560.91 137.21 543.9 0"/>
  <polygon class="cls-1" points="61.4 204.96 52.88 136.19 52.88 136.19 46.82 87.26 46.82 87.26 38.29 18.49 38.29 18.49 36 0 0 0 0 500 258.41 500 324.3 172.38 61.4 204.96"/>
  <polygon class="cls-1" points="553.98 0 571.03 137.59 570.87 138.38 498.15 500 600 500 600 0 553.98 0"/>
  <polygon class="cls-1" points="429.33 39.86 260.21 60.82 56.74 86.03 62.8 134.96 386.47 94.85 394.48 159.47 394.32 160.26 326 500 373.18 500 443.21 151.79 429.33 39.86"/>
  <polygon class="cls-1" points="484.15 0 268.81 0 49.45 27.18 55.51 76.11 167.01 62.29 438.03 28.71 453.33 152.17 453.17 152.97 383.38 500 430.56 500 502.06 144.5 484.15 0"/>
  <polygon class="cls-1" points="377.78 106 64.03 144.88 70.1 193.81 336.84 160.75 335.47 167.55 268.61 500 315.8 500 384.36 159.08 377.78 106"/>
  <polygon class="cls-1" points="187.5 0 46.08 0 48.22 17.26 187.5 0"/>
  <polygon class="cls-2" points="336.84 160.75 70.1 193.81 64.03 144.88 54.11 146.11 52.88 136.19 52.88 136.19 61.4 204.96 324.3 172.38 258.41 500 268.61 500 335.47 167.55 336.84 160.75"/>
  <rect class="cls-2" x="176.21" y="329.54" width="347.74" height="0" transform="translate(-42.02 607.78) rotate(-78.63)"/>
  <polygon class="cls-2" points="326 500 326 500 394.32 160.26 326 500"/>
  <polygon class="cls-2" points="429.33 39.86 260.21 60.82 429.33 39.86 429.33 39.86"/>
  <polygon class="cls-2" points="373.18 500 373.18 500 443.21 151.79 373.18 500"/>
  <polygon class="cls-2" points="453.33 152.17 438.03 28.71 167.01 62.29 438.03 28.71 453.33 152.17"/>
  <polygon class="cls-2" points="394.48 159.47 386.47 94.85 62.8 134.96 56.74 86.03 46.82 87.26 52.88 136.19 54.11 146.11 64.03 144.88 377.78 106 384.36 159.08 384.36 159.08 315.8 500 326 500 394.32 160.26 394.48 159.47"/>
  <polygon class="cls-2" points="440.76 500 440.76 500 512.02 145.68 440.76 500"/>
  <polygon class="cls-2" points="453.33 152.17 438.03 28.71 167.01 62.29 55.51 76.11 49.45 27.18 39.52 28.41 38.29 18.49 38.29 18.49 46.82 87.26 46.82 87.26 56.74 86.03 260.21 60.82 429.33 39.86 429.33 39.86 443.21 151.79 373.18 500 383.38 500 453.17 152.97 453.33 152.17"/>
  <polygon class="cls-2" points="571.03 137.59 553.98 0 543.9 0 560.91 137.21 487.95 500 498.15 500 570.87 138.38 571.03 137.59"/>
  <polygon class="cls-2" points="39.52 28.41 49.45 27.18 268.81 0 187.5 0 48.22 17.26 46.08 0 36 0 38.29 18.49 39.52 28.41"/>
  <polygon class="cls-2" points="512.18 144.88 494.23 0 484.15 0 502.06 144.5 430.56 500 440.76 500 512.02 145.68 512.18 144.88"/>
</svg>