<?xml version="1.0" encoding="UTF-8"?>
<svg id="Layer_1" data-name="Layer 1" xmlns="http://www.w3.org/2000/svg" viewBox="0 0 588.06 510">
  <defs>
    <style>
      .cls-1, .cls-2 {
        fill: none;
      }

      .cls-2 {
        stroke: #f1f2f2;
        stroke-miterlimit: 10;
        stroke-width: 10px;
      }
    </style>
  </defs>
  <polygon class="cls-1" points="588.06 5 538.02 5 554.71 142.4 483.24 505 588.06 505 588.06 5"/>
  <polygon class="cls-1" points="64.44 204.38 57.29 145.54 50.14 86.69 43 27.84 40.22 5 0 5 0 505 258.27 505 323.99 171.57 64.44 204.38"/>
  <polygon class="cls-2" points="381.67 164.27 374.52 105.43 57.29 145.54 64.44 204.38 323.99 171.57 258.27 505 314.51 505 381.67 164.27"/>
  <polygon class="cls-2" points="425.05 39.28 50.14 86.69 57.29 145.54 374.52 105.43 381.67 164.27 314.51 505 370.75 505 439.35 156.98 425.05 39.28"/>
  <polygon class="cls-2" points="43 27.84 50.14 86.69 425.05 39.28 439.35 156.98 370.75 505 426.99 505 497.03 149.69 479.45 5 223.61 5 43 27.84"/>
  <polygon class="cls-2" points="538.02 5 479.45 5 497.03 149.69 426.99 505 483.24 505 554.71 142.4 538.02 5"/>
  <polygon class="cls-2" points="223.61 5 40.22 5 43 27.84 223.61 5"/>
</svg>