<?xml version="1.0" encoding="UTF-8"?>
<!DOCTYPE svg PUBLIC "-//W3C//DTD SVG 1.1//EN" "http://www.w3.org/Graphics/SVG/1.1/DTD/svg11.dtd">
<svg xmlns="http://www.w3.org/2000/svg" version="1.1" width="80px" height="80px" style="shape-rendering:geometricPrecision; text-rendering:geometricPrecision; image-rendering:optimizeQuality; fill-rule:evenodd; clip-rule:evenodd" xmlns:xlink="http://www.w3.org/1999/xlink">
<g><path style="opacity:0.929" fill="#fefffe" d="M 55.5,2.5 C 56.552,2.35055 57.552,2.51722 58.5,3C 60.9554,6.07772 63.2887,9.24439 65.5,12.5C 69.491,13.4538 73.3243,14.7872 77,16.5C 77.6667,17.8333 77.6667,19.1667 77,20.5C 74.6255,22.539 72.6255,24.8723 71,27.5C 70.9359,31.9023 70.7692,36.2356 70.5,40.5C 68.5787,41.641 66.5787,41.8077 64.5,41C 62.0448,39.6884 59.5448,38.5218 57,37.5C 54.4552,38.5218 51.9552,39.6884 49.5,41C 47.5594,41.7429 45.7261,41.5762 44,40.5C 43.755,36.1468 43.755,31.8134 44,27.5C 32.8058,18.7489 34.3058,13.9156 48.5,13C 51.2157,9.72938 53.549,6.22938 55.5,2.5 Z"/></g>
<g><path style="opacity:0.929" fill="#fefffe" d="M 21.5,37.5 C 22.552,37.3505 23.552,37.5172 24.5,38C 26.9554,41.0777 29.2887,44.2444 31.5,47.5C 35.491,48.4538 39.3243,49.7872 43,51.5C 43.6667,52.8333 43.6667,54.1667 43,55.5C 40.6255,57.539 38.6255,59.8723 37,62.5C 36.9359,66.9023 36.7692,71.2356 36.5,75.5C 34.5787,76.641 32.5787,76.8077 30.5,76C 28.0448,74.6884 25.5448,73.5218 23,72.5C 20.4552,73.5218 17.9552,74.6884 15.5,76C 13.5594,76.7429 11.7261,76.5762 10,75.5C 9.75497,71.1468 9.75497,66.8134 10,62.5C -1.1942,53.7489 0.305801,48.9156 14.5,48C 17.2157,44.7294 19.549,41.2294 21.5,37.5 Z"/></g>
</svg>
