<?xml version="1.0" encoding="UTF-8"?>
<svg id="Layer_1" data-name="Layer 1" xmlns="http://www.w3.org/2000/svg" viewBox="0 0 750 500">
  <defs>
    <style>
      .cls-1 {
        fill: none;
      }

      .cls-2 {
        fill: #f2f2f2;
      }
    </style>
  </defs>
  <polygon class="cls-1" points="280.23 100.58 340.48 18.97 466.38 0 276.11 0 307.52 23.19 265.37 80.29 32.85 115.32 21.7 41.3 43.14 12.26 124.55 0 0 0 0 500 90.8 500 36.17 137.35 280.23 100.58"/>
  <polygon class="cls-1" points="663.95 0 728.74 430.02 264.19 500 750 500 750 0 663.95 0"/>
  <polygon class="cls-1" points="32.21 43.91 41.25 103.94 259.79 71.02 293.54 25.29 259.27 0 191.68 0 48.72 21.54 32.21 43.91"/>
  <polygon class="cls-1" points="654.29 3.02 650.2 0 533.51 0 346.06 28.24 285.82 109.86 47.55 145.75 100.92 500 197.06 500 717.36 421.62 654.29 3.02"/>
  <polygon class="cls-2" points="21.7 41.3 32.85 115.32 265.37 80.29 307.52 23.19 276.11 0 259.27 0 293.54 25.29 259.79 71.02 41.25 103.94 32.21 43.91 48.72 21.54 191.68 0 124.55 0 43.14 12.26 21.7 41.3"/>
  <polygon class="cls-2" points="663.95 0 650.2 0 654.29 3.02 717.36 421.62 197.06 500 264.19 500 728.74 430.02 663.95 0"/>
  <polygon class="cls-2" points="285.82 109.86 346.06 28.24 533.51 0 466.38 0 340.48 18.97 280.23 100.58 36.17 137.35 90.8 500 100.92 500 47.55 145.75 285.82 109.86"/>
</svg>