<?xml version="1.0" encoding="UTF-8"?>
<svg id="Layer_1" data-name="Layer 1" xmlns="http://www.w3.org/2000/svg" viewBox="0 0 600 500">
  <defs>
    <style>
      .cls-1 {
        fill: none;
      }

      .cls-2 {
        fill: #f2f2f2;
      }
    </style>
  </defs>
  <path class="cls-1" d="m339.09,177.71l201.77,59.44,38.95-132.22L223.62,0h-84.09L18.52,410.77l132.22,38.95,59.44-201.77,137.34,252.05h33.25L221.85,208.33l17.66-59.96,59.96,17.66.99,1.82,164.95,302.72-54.01,29.43h61.03l32.59-17.76-165.94-304.53Zm-117.82-62.81l-88.77,301.35-80.5-23.71L164.49,10.69l381.84,112.48-23.71,80.5L221.27,114.9Z"/>
  <polygon class="cls-1" points="171.25 23.1 64.42 385.76 125.73 403.82 214.5 102.48 515.85 191.25 533.91 129.94 171.25 23.1"/>
  <polygon class="cls-1" points="292.67 174.46 246.28 160.79 232.61 207.19 391.79 499.3 451.85 466.58 292.67 174.46"/>
  <polygon class="cls-1" points="259.01 0 592.23 98.16 547.62 249.56 359.42 194.12 518.59 486.24 493.33 500 600 500 600 0 259.01 0"/>
  <polygon class="cls-1" points="157.51 462.14 6.11 417.54 129.1 0 0 0 0 500 336.13 500 212.95 273.93 157.51 462.14"/>
  <polygon class="cls-2" points="359.42 194.12 547.62 249.56 592.23 98.16 259.01 0 223.62 0 579.81 104.93 540.86 237.15 339.09 177.71 505.03 482.24 472.43 500 493.33 500 518.59 486.24 359.42 194.12"/>
  <polygon class="cls-2" points="150.74 449.72 18.52 410.77 139.53 0 129.1 0 6.11 417.54 157.51 462.14 212.95 273.93 336.13 500 347.52 500 210.18 247.95 150.74 449.72"/>
  <path class="cls-2" d="m546.33,123.17L164.49,10.69,52,392.53l80.5,23.71L221.27,114.9l301.35,88.77,23.71-80.5Zm-331.83-20.69l-88.77,301.35-61.31-18.06L171.25,23.1l362.66,106.83-18.06,61.31L214.5,102.48Z"/>
  <path class="cls-2" d="m300.46,167.86l-.99-1.82-59.96-17.66-17.66,59.96,158.93,291.67h30.63l54.01-29.43-164.95-302.72Zm-67.85,39.33l13.67-46.4,46.4,13.67,159.17,292.12-60.06,32.73L232.61,207.19Z"/>
</svg>