<?xml version="1.0" encoding="UTF-8"?>
<svg id="Layer_1" data-name="Layer 1" xmlns="http://www.w3.org/2000/svg" xmlns:xlink="http://www.w3.org/1999/xlink" viewBox="0 0 1775.24 817.04">
  <defs>
    <style>
      .cls-1 {
        fill: url(#linear-gradient-2);
      }

      .cls-2 {
        fill: #4d4d4d;
      }

      .cls-3 {
        fill: none;
        stroke: url(#linear-gradient);
        stroke-miterlimit: 10;
        stroke-width: 30px;
      }

      .cls-4 {
        fill: #f2f2f2;
      }
    </style>
    <linearGradient id="linear-gradient" x1="889.64" y1="366" x2="1608.37" y2="366" gradientUnits="userSpaceOnUse">
      <stop offset="0" stop-color="#e86152"/>
      <stop offset=".13" stop-color="#e35a5c"/>
      <stop offset=".36" stop-color="#d84779"/>
      <stop offset=".65" stop-color="#c528a8"/>
      <stop offset="1" stop-color="#ac00e8"/>
    </linearGradient>
    <linearGradient id="linear-gradient-2" x1="912.04" y1="717.65" x2="876.41" y2="310.48" gradientTransform="translate(0 -30)" gradientUnits="userSpaceOnUse">
      <stop offset="0" stop-color="#ccc"/>
      <stop offset=".2" stop-color="#e0e0e0"/>
      <stop offset=".43" stop-color="#f1f1f1"/>
      <stop offset=".69" stop-color="#fbfbfb"/>
      <stop offset="1" stop-color="#fff"/>
    </linearGradient>
  </defs>
  <g>
    <path class="cls-3" d="m1072.43,171.74c-84.07,214.7,155.3,554.75,305.29,533.5,177.63-25.16,275.04-563.52,176.25-616.86-124.98-67.48-600.08,621.69-646.24,587.49-42.49-31.49,368.63-609.36,318.53-647.85-19.78-15.19-116.91,49.44-153.82,143.72Z"/>
    <g>
      <path class="cls-4" d="m1138.92,131.09l-15.42,86.04c12.39-21.7,24.02-42.52,34.43-61.94,17.36-32.36,29.85-57.91,38.16-78.09.52-1.27,1.02-2.49,1.49-3.68l-29.24,5.19c-2.1,1.79-4.25,3.68-6.44,5.67-11.14,10.12-28.15,27.38-43.74,50.49l20.74-3.68Z"/>
      <path class="cls-4" d="m1093.82,268.38c9.83-16.77,19.41-33.28,28.59-49.32l-40.09,3.66c-2.68,15.29-3.93,31.04-3.91,47.07l15.41-1.41Z"/>
      <path class="cls-4" d="m1081.42,472.61c-.9-1.92-1.78-3.85-2.66-5.78l-2.01,11.2c1.55-1.8,3.1-3.6,4.67-5.42Z"/>
      <path class="cls-4" d="m1444.12,636.62l-121.15-18.18,13.4-186.49,202.09,3.07c4.17-15.13,8.01-30.62,11.48-46.35l-210.24-3.2,10.09-140.47,191.84-17.52,10.3,151.96c1.96-9.33,3.8-18.74,5.5-28.2,26.42-147.53,7.42-230.56-14.51-242.4-1.74-.94-4.73-1.93-9.45-1.86l5.02,74.08-138.35,12.63c-6.25,5.76-12.74,11.87-19.52,18.4-26.15,25.18-53.42,53.36-81.07,83.13l-6.43,89.54-73.18-1.11c-13.45,15.3-26.81,30.66-40.02,45.91l109.87,1.67-12.95,180.27-50.87-7.63c23.78,24.71,47.95,44.23,71.1,57.71l97.81,14.68c18.17-7.98,34.71-22.47,49.25-39.65Z"/>
      <path class="cls-4" d="m996.86,569.5l-23.36-3.51c-.51.92-1.03,1.87-1.53,2.79-8.72,16.02-15.73,29.49-21.36,40.82l8,1.2c4.71-4.87,9.83-10.26,15.43-16.28,7.23-7.77,14.86-16.15,22.82-25.02Z"/>
      <path class="cls-4" d="m921.95,563.59c8.02-15.16,17-31.45,26.69-48.6l23.42-88.59,27.77.42c8.92-15.08,18.07-30.48,27.37-46.11l-42.89-.65,27.55-104.21,19.94-1.82c-.18-15.85.69-31.55,2.74-46.96l-10.02.92,21.24-80.36,12.85-2.28c9.2-19.21,20.47-37.02,32.82-53.07l-83.05,14.75-129.98,491.72,24.03,3.61c5.38-11.41,11.87-24.27,19.54-38.77Z"/>
      <path class="cls-4" d="m1246.36,75.72c-3.77,11.09-9.09,24.07-16.02,39.14l83.23-14.78-7.34,102.19-127.46,11.64c-23.77,42.47-51.22,89.11-79.04,135.92l-5.11,27.07c5.59,19.19,12.21,38.49,20.05,57.09,14.35-16.67,29.51-34.24,44.3-51.25l-17.83-.27,21.57-120.37,113.85-10.4c24.4-25.99,48.49-50.67,71.8-73.11,2.24-2.16,4.46-4.28,6.67-6.37l5.78-80.51,139.92-24.84c25.45-9.03,46.56-8.52,64.29,1.06,4.67,2.52,9.02,5.69,13.07,9.46l-4.79-70.64-323.27,57.4c-1.26,4.51-2.62,8.5-3.67,11.6Z"/>
      <path class="cls-4" d="m1598.77,382.65c-9.57,47.01-22.35,92.38-37.56,133.72l9.43,139.24-74.03-11.11c-11.46,16.13-23.39,30.04-35.71,41.68l160.06,24.02-22.19-327.54Z"/>
      <path class="cls-4" d="m1157.17,595.63c-.61-.77-1.21-1.57-1.82-2.35l-50.63-7.6,9.36-52.22c-3.27-5.38-6.49-10.8-9.62-16.32-15.06,17.47-29.71,34.41-43.74,50.42l-2.01,11.21-6.93-1.04c-13.1,14.86-25.57,28.79-37.21,41.45l189.41,28.42c-16.05-15.55-31.77-32.98-46.8-51.98Z"/>
      <path class="cls-4" d="m1062.62,427.78c-1.2-3.23-2.38-6.46-3.52-9.7-1.9,3.2-3.8,6.39-5.68,9.56l9.21.14Z"/>
    </g>
    <polygon class="cls-4" points="948.64 515 937.1 561.73 905.74 556.9 948.64 515"/>
    <path class="cls-4" d="m1091.41,92.29l76.95-13.66c-7.02,9.79-15.34,20.32-25.12,31.13-8.58,9.48-17.04,17.79-25.05,25.02-19.86,3.53-39.73,7.05-59.59,10.58.13-5.78,1.24-20.48,11.53-34.72,7.37-10.21,16.22-15.71,21.28-18.35Z"/>
    <polygon class="cls-4" points="902.42 602.36 950.61 609.59 973.5 565.99 922.15 557.78 902.42 602.36"/>
    <path class="cls-4" d="m1444.12,636.62l52.49,7.88c-2.2,5.59-5.7,12.76-11.35,20.16-8.46,11.09-17.98,17.77-24.36,21.52-22.01-3.3-44.02-6.61-66.04-9.91,4.64-6.66,11.87-15.5,22.49-23.91,9.95-7.88,19.54-12.74,26.77-15.73Z"/>
    <polygon class="cls-4" points="1299.55 295.23 1306.23 202.27 1400.14 193.7 1349.8 245 1339.78 291.94 1299.55 295.23"/>
    <polygon class="cls-4" points="1276.56 251.69 1349.8 245 1355.03 172.21 1306.23 202.27 1276.56 251.69"/>
  </g>
  <g>
    <path class="cls-4" d="m504.47,186.13l-21.29,209.49-51.16,6.51,21.29-209.49,51.16-6.51Z"/>
    <path class="cls-4" d="m685.58,163.09l-4.41,43.39-56.69,7.21-16.88,166.09-51.46,6.55,16.88-166.09-56.4,7.17,4.41-43.39,164.54-20.93Z"/>
    <path class="cls-4" d="m876.34,189.04l-48.19,22.38c-7.2-19.47-19.57-27.64-41.67-24.83-31.1,3.96-50.46,30.64-54.87,74.04-4.62,45.49,9.05,66.2,41.32,62.09,24.71-3.14,43.35-19.99,45.66-42.73l.64-6.28-40.7,5.18,3.77-37.11,91.86-11.69-11.92,117.31-45.35,5.77,1.86-18.26c-15.86,17.67-35.86,28.19-59.41,31.19-24.13,3.07-44.53-2.31-60.27-16.85-16.06-14.2-24.39-42.39-20.52-80.4,3.68-36.21,16.1-65.26,37.24-86.86,20.84-21.56,45.65-34.17,74.43-37.83,44.48-5.66,73.08,9.31,86.11,44.88Z"/>
  </g>
  <g>
    <path class="cls-2" d="m382.02,396.85l-92.56,309.39-83.68,10.64-12.4-215.25-59.14,224.35-86.19,10.96-31.7-293.58,78.24-9.95,6.92,224.45,62.53-233.29,76.57-9.74,13.04,221.12,53.06-229.53,75.31-9.58Z"/>
    <path class="cls-2" d="m536.4,442.26l-7,68.92c-5.4.26-10,.85-13.76,1.33-38.07,4.84-62.59,26.67-68.55,85.25l-9.11,89.59-70.29,8.94,23.42-230.44,67.36-8.57-3.76,37.04c17.16-30.67,38.73-47.87,64.67-51.17,5.44-.69,11.25-1.01,17.02-.89Z"/>
    <path class="cls-2" d="m743.76,486.46l-11.47,112.85c-2.15,21.11-1.34,37.58,2.32,50.3l-68.2,8.68c-3.11-5.98-4.87-12.98-5.63-21.82-16.2,21.19-38.5,33.38-67.36,37.06-46.44,5.91-71.12-19.44-66.88-61.22,4.6-45.23,34.42-74.53,102.65-91.71l42.78-10.54,1.05-10.34c2.15-21.11-3.01-27.25-25.19-24.43-21.34,2.71-30.08,11.48-33.26,30.59l-69.45,8.84c6.71-49.75,45.36-80.6,108.95-88.69,68.2-8.68,94.53,12.63,89.67,60.45Zm-76.16,66.66l-26.33,7.18c-28.84,7.5-40.64,17.92-42.39,35.15-1.62,15.94,5.92,23.06,23.07,20.87,22.17-2.82,41.37-20.99,43.6-42.96l2.06-20.24Z"/>
    <path class="cls-2" d="m988.27,417.09c16.09,20.49,22.36,48.17,18.73,83.92-3.68,36.18-15.86,66.64-36.96,91.43-21.1,24.79-46.09,39.03-75.8,42.8-24.68,3.14-43.52-2.54-56.5-17.05l-9.32,91.74-70.29,8.94,30.86-303.66,67.36-8.57-2.36,23.26c16.66-21.68,38.58-34.24,65.78-37.7,29.71-3.78,52.42,4.39,68.5,24.87Zm-145.24,104.36c-4.42,43.5,10.5,63.29,37.7,59.83,28.87-3.67,47.92-28.63,52.26-71.27,4.33-42.64-9.33-62.59-39.04-58.81-27.2,3.46-46.58,27.61-50.92,70.25Z"/>
    <path class="cls-2" d="m1246.84,384.2c16.09,20.49,22.36,48.17,18.73,83.92-3.68,36.18-15.86,66.64-36.96,91.43-21.1,24.79-46.09,39.03-75.8,42.8-24.68,3.14-43.52-2.54-56.5-17.05l-9.32,91.74-70.29,8.94,30.86-303.66,67.36-8.57-2.36,23.26c16.66-21.68,38.58-34.24,65.78-37.7,29.71-3.78,52.42,4.39,68.5,24.87Zm-145.24,104.36c-4.42,43.5,10.5,63.29,37.7,59.83,28.87-3.67,47.92-28.63,52.26-71.27,4.33-42.64-9.33-62.59-39.04-58.81-27.2,3.46-46.58,27.61-50.92,70.25Z"/>
    <path class="cls-2" d="m1487.87,353.11c17.76,20.27,24.7,49.58,20.71,88.77l-1.31,12.92-153.13,19.48c-1.24,32.47,15.47,46.93,43.92,43.31,19.66-2.5,36.53-14,50.17-34.44l52.47,20.11c-26.78,39.97-63.8,62.96-111.92,69.08-35.98,4.58-63.29-3-82.31-23.12-19.06-19.68-26.54-47.64-22.91-83.39,3.68-36.18,16.7-66.75,39.47-91.75,22.36-24.95,51.11-39.66,86.26-44.13,34.73-4.42,60.78,3.32,78.59,23.17Zm-129.77,78.16l82.42-10.48c1.39-29.94-10.88-43.26-36.82-39.96-23.43,2.98-40.35,19.16-45.6,50.44Z"/>
    <path class="cls-2" d="m1775.24,219.62l-30.64,301.51-67.36,8.57,2.45-24.12c-17.96,22.27-40.72,34.94-67.91,38.4-29.29,3.73-51.58-4.49-67.25-25.03-15.71-20.11-21.52-48.28-17.89-84.03,3.68-36.18,16.28-66.69,37.8-91.54,21.52-24.85,46.51-39.08,74.96-42.7,24.68-3.14,43.56,2.11,56.59,16.19l8.97-88.3,70.29-8.94Zm-175.01,206.36c-4.33,42.64,10.17,62.48,39.04,58.81,28.45-3.62,46.96-27.23,51.33-70.3,4.42-43.5-10.87-63.67-38.07-60.21-29.71,3.78-47.92,28.63-52.3,71.7Z"/>
  </g>
  <g>
    <path class="cls-1" d="m365.67,380.5l-92.56,309.39-83.68,10.64-12.4-215.25-59.14,224.35-86.19,10.96L0,427.02l78.24-9.95,6.92,224.45,62.53-233.29,76.57-9.74,13.04,221.12,53.06-229.53,75.31-9.58Z"/>
    <path class="cls-1" d="m520.05,425.91l-7,68.92c-5.4.26-10,.85-13.76,1.33-38.07,4.84-62.59,26.67-68.55,85.25l-9.11,89.59-70.29,8.94,23.42-230.44,67.36-8.57-3.76,37.04c17.16-30.67,38.73-47.87,64.67-51.17,5.44-.69,11.25-1.01,17.02-.89Z"/>
    <path class="cls-1" d="m727.42,470.11l-11.47,112.85c-2.15,21.11-1.34,37.58,2.32,50.3l-68.2,8.68c-3.11-5.98-4.87-12.98-5.63-21.82-16.2,21.19-38.5,33.38-67.36,37.06-46.44,5.91-71.12-19.44-66.88-61.22,4.6-45.23,34.42-74.53,102.65-91.71l42.78-10.54,1.05-10.34c2.15-21.11-3.01-27.25-25.19-24.43-21.34,2.71-30.08,11.48-33.26,30.59l-69.45,8.84c6.71-49.75,45.36-80.6,108.95-88.69,68.2-8.68,94.53,12.63,89.67,60.45Zm-76.16,66.66l-26.33,7.18c-28.84,7.5-40.64,17.92-42.39,35.15-1.62,15.94,5.92,23.06,23.07,20.87,22.17-2.82,41.37-20.99,43.6-42.96l2.06-20.24Z"/>
    <path class="cls-1" d="m971.93,400.74c16.09,20.49,22.36,48.17,18.73,83.92-3.68,36.18-15.86,66.64-36.96,91.43-21.1,24.79-46.09,39.03-75.8,42.8-24.68,3.14-43.52-2.54-56.5-17.05l-9.32,91.74-70.29,8.94,30.86-303.66,67.36-8.57-2.36,23.26c16.66-21.68,38.58-34.24,65.78-37.7,29.71-3.78,52.42,4.39,68.5,24.87Zm-145.24,104.36c-4.42,43.5,10.5,63.29,37.7,59.83,28.87-3.67,47.92-28.63,52.26-71.27,4.33-42.64-9.33-62.59-39.04-58.81-27.2,3.46-46.58,27.61-50.92,70.25Z"/>
    <path class="cls-1" d="m1230.49,367.85c16.09,20.49,22.36,48.17,18.73,83.92-3.68,36.18-15.86,66.64-36.96,91.43-21.1,24.79-46.09,39.03-75.8,42.8-24.68,3.14-43.52-2.54-56.5-17.05l-9.32,91.74-70.29,8.94,30.86-303.66,67.36-8.57-2.36,23.26c16.66-21.68,38.58-34.24,65.78-37.7,29.71-3.78,52.42,4.39,68.5,24.87Zm-145.24,104.36c-4.42,43.5,10.5,63.29,37.7,59.83,28.87-3.67,47.92-28.63,52.26-71.27s-9.33-62.59-39.04-58.81c-27.2,3.46-46.58,27.61-50.92,70.25Z"/>
    <path class="cls-1" d="m1471.52,336.76c17.76,20.27,24.7,49.58,20.71,88.77l-1.31,12.92-153.13,19.48c-1.24,32.47,15.47,46.93,43.92,43.31,19.66-2.5,36.53-14,50.17-34.44l52.47,20.11c-26.78,39.97-63.8,62.96-111.92,69.08-35.98,4.58-63.29-3-82.31-23.12-19.06-19.68-26.54-47.64-22.91-83.39,3.68-36.18,16.7-66.75,39.47-91.75,22.36-24.95,51.11-39.66,86.26-44.13,34.73-4.42,60.78,3.32,78.59,23.17Zm-129.77,78.16l82.42-10.48c1.39-29.94-10.88-43.26-36.82-39.96-23.43,2.98-40.35,19.16-45.6,50.44Z"/>
    <path class="cls-1" d="m1758.89,203.27l-30.64,301.51-67.36,8.57,2.45-24.12c-17.96,22.27-40.72,34.94-67.91,38.4-29.29,3.73-51.58-4.49-67.25-25.03-15.71-20.11-21.52-48.28-17.89-84.03,3.68-36.18,16.28-66.69,37.8-91.54,21.52-24.85,46.51-39.08,74.96-42.7,24.68-3.14,43.56,2.11,56.59,16.19l8.97-88.3,70.29-8.94Zm-175.01,206.36c-4.33,42.64,10.17,62.48,39.04,58.81s46.96-27.23,51.33-70.3c4.42-43.5-10.87-63.67-38.07-60.21-29.71,3.78-47.92,28.63-52.3,71.7Z"/>
  </g>
</svg>