<?xml version="1.0" encoding="UTF-8"?>
<svg id="Layer_1" data-name="Layer 1" xmlns="http://www.w3.org/2000/svg" viewBox="0 0 600 500">
  <defs>
    <style>
      .cls-1 {
        fill: none;
      }

      .cls-2 {
        fill: #f2f2f2;
      }
    </style>
  </defs>
  <path class="cls-1" d="m125.98,411.1c22.47-9.56,46-10.11,64.97-3.25L117.12,88.45,304.14,0H0v500h76.38c-12.33-32.39,9.46-71.82,49.59-88.9Z"/>
  <path class="cls-1" d="m450.75,0l76.32,329.75-2.57-1.6c2.17,28.79-18.67,59.53-52.81,74.09-40.88,17.44-85.33,5.06-99.28-27.65-13.95-32.71,7.89-73.35,48.77-90.79,22.47-9.58,46-10.14,64.97-3.29l-57.14-246.86-266.34,124.62,69.17,298.85-2.57-1.72c1.18,15.21-4.08,30.97-14.33,44.6h385.05V0h-149.25Z"/>
  <path class="cls-2" d="m229.29,455.4l-32.37-21.68-5.98-25.86c-18.96-6.86-42.49-6.31-64.97,3.25-40.13,17.08-61.92,56.51-49.59,88.9h138.57c10.25-13.64,15.51-29.39,14.33-44.6Z"/>
  <path class="cls-2" d="m486.16,280.5c-18.97-6.85-42.5-6.29-64.97,3.29-40.88,17.44-62.72,58.08-48.77,90.79,13.95,32.71,58.4,45.08,99.28,27.65,34.13-14.56,54.97-45.3,52.81-74.09l-31.94-19.93-6.41-27.71Z"/>
  <polygon class="cls-2" points="190.94 407.85 196.92 433.72 229.29 455.4 231.85 457.12 162.68 158.26 429.02 33.64 486.16 280.5 492.58 308.21 524.51 328.15 527.08 329.75 450.75 0 304.14 0 117.12 88.45 190.94 407.85"/>
</svg>