<?xml version="1.0" encoding="UTF-8"?>
<svg id="Layer_1" data-name="Layer 1" xmlns="http://www.w3.org/2000/svg" viewBox="0 0 700 500">
  <defs>
    <style>
      .cls-1 {
        fill: none;
      }

      .cls-2 {
        fill: #f2f2f2;
      }
    </style>
  </defs>
  <path class="cls-1" d="m68.49,110c0,75.72,54.51,137.33,121.51,137.33s121.51-61.6,121.51-137.33c0-44.95-19.21-84.93-48.84-110H117.33c-29.63,25.07-48.84,65.05-48.84,110Z"/>
  <path class="cls-1" d="m641.51,390c0-75.72-54.51-137.33-121.51-137.33s-121.51,61.61-121.51,137.33c0,44.95,19.21,84.93,48.84,110h145.33c29.63-25.07,48.84-65.05,48.84-110Z"/>
  <path class="cls-1" d="m291.06,0c25,28.39,40.44,67.22,40.44,110,0,86.75-63.48,157.33-141.51,157.33S48.49,196.75,48.49,110c0-42.78,15.44-81.61,40.44-110H0v500h254.83L424.06,0h-132.99Z"/>
  <path class="cls-1" d="m445.17,0l-169.23,500h142.99c-25-28.39-40.44-67.22-40.44-110,0-86.75,63.48-157.33,141.51-157.33s141.51,70.58,141.51,157.33c0,42.78-15.44,81.61-40.44,110h78.94V0h-254.83Z"/>
  <polygon class="cls-2" points="424.06 0 254.83 500 275.94 500 445.17 0 424.06 0"/>
  <path class="cls-2" d="m190,267.33c78.03,0,141.51-70.58,141.51-157.33,0-42.78-15.44-81.61-40.44-110h-28.4c29.63,25.07,48.84,65.05,48.84,110,0,75.72-54.51,137.33-121.51,137.33s-121.51-61.6-121.51-137.33c0-44.95,19.21-84.93,48.84-110h-28.4c-25,28.39-40.44,67.22-40.44,110,0,86.75,63.48,157.33,141.51,157.33Z"/>
  <path class="cls-2" d="m520,232.67c-78.03,0-141.51,70.58-141.51,157.33,0,42.78,15.44,81.61,40.44,110h28.4c-29.63-25.07-48.84-65.05-48.84-110,0-75.72,54.51-137.33,121.51-137.33s121.51,61.61,121.51,137.33c0,44.95-19.21,84.93-48.84,110h28.4c25-28.39,40.44-67.22,40.44-110,0-86.75-63.48-157.33-141.51-157.33Z"/>
</svg>