<?xml version="1.0" encoding="UTF-8"?>
<svg id="Layer_1" data-name="Layer 1" xmlns="http://www.w3.org/2000/svg" viewBox="0 0 800 500">
  <defs>
    <style>
      .cls-1 {
        fill: none;
      }

      .cls-2 {
        fill: #f2f2f2;
      }
    </style>
  </defs>
  <polygon class="cls-1" points="685.36 0 635.53 75.08 678.39 181.77 567.64 150.9 479.42 224.64 474.55 109.76 377.16 48.65 484.91 8.52 487.05 0 171.7 0 223.19 64.9 337.9 57.1 274.32 152.9 317.18 259.59 206.43 228.72 118.21 302.45 113.34 187.58 15.95 126.46 123.7 86.34 145.4 0 0 0 0 500 167.49 500 85.31 448.43 193.06 408.3 221.09 296.8 292.55 386.87 407.27 379.07 343.68 474.87 353.78 500 546.81 500 543.92 431.73 446.53 370.61 554.27 330.49 582.3 218.98 653.76 309.05 768.48 301.25 704.89 397.05 746.26 500 800 500 800 0 685.36 0"/>
  <polygon class="cls-1" points="634.62 461.82 639.69 463.24 730.92 488.67 695.61 400.78 693.65 395.9 696.56 391.52 748.94 312.61 654.44 319.03 649.2 319.39 645.93 315.27 587.06 241.07 563.97 332.93 562.69 338.02 557.76 339.86 469 372.91 549.23 423.26 553.68 426.05 553.91 431.31 556.82 500 588.95 500 630.59 465.2 634.62 461.82"/>
  <polygon class="cls-1" points="604.54 500 734.34 500 637 472.87 604.54 500"/>
  <polygon class="cls-1" points="332.44 473.72 335.35 469.34 387.73 390.42 293.23 396.85 287.99 397.21 284.72 393.09 225.85 318.88 202.76 410.74 201.48 415.84 196.55 417.68 107.79 450.73 186.3 500 343 500 334.4 478.6 332.44 473.72"/>
  <polygon class="cls-1" points="493.33 16.06 488.4 17.89 399.64 50.95 479.87 101.29 484.32 104.09 484.54 109.34 488.55 203.97 561.23 143.23 565.26 139.86 570.32 141.27 661.56 166.7 626.25 78.81 624.29 73.93 627.2 69.55 673.36 0 497.36 0 494.61 10.96 493.33 16.06"/>
  <polygon class="cls-1" points="132.12 93.87 127.19 95.71 38.43 128.76 118.66 179.11 123.11 181.9 123.33 187.16 127.34 281.79 200.01 221.04 204.05 217.67 209.11 219.08 300.35 244.52 265.04 156.63 263.08 151.75 265.99 147.37 318.37 68.46 223.87 74.88 218.62 75.24 215.36 71.12 158.94 0 155.71 0 133.4 88.78 132.12 93.87"/>
  <polygon class="cls-2" points="377.16 48.65 474.55 109.76 479.42 224.64 567.64 150.9 678.39 181.77 635.53 75.08 685.36 0 673.36 0 627.2 69.55 624.29 73.93 626.25 78.81 661.56 166.7 570.32 141.27 565.26 139.86 561.23 143.23 488.55 203.97 484.54 109.34 484.32 104.09 479.87 101.29 399.64 50.95 488.4 17.89 493.33 16.06 494.61 10.96 497.36 0 487.05 0 484.91 8.52 377.16 48.65"/>
  <polygon class="cls-2" points="768.48 301.25 653.76 309.05 582.3 218.98 554.27 330.49 446.53 370.61 543.92 431.73 546.81 500 556.82 500 553.91 431.31 553.68 426.05 549.23 423.26 469 372.91 557.76 339.86 562.69 338.02 563.97 332.93 587.06 241.07 645.93 315.27 649.2 319.39 654.44 319.03 748.94 312.61 696.56 391.52 693.65 395.9 695.61 400.78 730.92 488.67 639.69 463.24 634.62 461.82 630.59 465.2 588.95 500 604.54 500 637 472.87 734.34 500 746.26 500 704.89 397.05 768.48 301.25"/>
  <polygon class="cls-2" points="15.95 126.46 113.34 187.58 118.21 302.45 206.43 228.72 317.18 259.59 274.32 152.9 337.9 57.1 223.19 64.9 171.7 0 158.94 0 215.36 71.12 218.62 75.24 223.87 74.88 318.37 68.46 265.99 147.37 263.08 151.75 265.04 156.63 300.35 244.52 209.11 219.08 204.05 217.67 200.01 221.04 127.34 281.79 123.33 187.16 123.11 181.9 118.66 179.11 38.43 128.76 127.19 95.71 132.12 93.87 133.4 88.78 155.71 0 145.4 0 123.7 86.34 15.95 126.46"/>
  <polygon class="cls-2" points="407.27 379.07 292.55 386.87 221.09 296.8 193.06 408.3 85.31 448.43 167.49 500 186.3 500 107.79 450.73 196.55 417.68 201.48 415.84 202.76 410.74 225.85 318.88 284.72 393.09 287.99 397.21 293.23 396.85 387.73 390.42 335.35 469.34 332.44 473.72 334.4 478.6 343 500 353.78 500 343.68 474.87 407.27 379.07"/>
</svg>