<?xml version="1.0" encoding="UTF-8"?>
<!DOCTYPE svg PUBLIC "-//W3C//DTD SVG 1.1//EN" "http://www.w3.org/Graphics/SVG/1.1/DTD/svg11.dtd">
<svg xmlns="http://www.w3.org/2000/svg" version="1.1" width="80px" height="80px" style="shape-rendering:geometricPrecision; text-rendering:geometricPrecision; image-rendering:optimizeQuality; fill-rule:evenodd; clip-rule:evenodd" xmlns:xlink="http://www.w3.org/1999/xlink">
<g><path style="opacity:0.958" fill="#fefffe" d="M 36.5,5.5 C 38.5273,5.33788 40.5273,5.50454 42.5,6C 46.5388,11.242 50.2055,16.742 53.5,22.5C 60.801,24.5231 67.9677,26.8564 75,29.5C 75.6667,31.5 75.6667,33.5 75,35.5C 71,40.1667 67,44.8333 63,49.5C 62.632,55.3934 63.132,61.2267 64.5,67C 63.9828,69.077 63.3161,71.077 62.5,73C 59.8333,73.6667 57.1667,73.6667 54.5,73C 49.8027,70.7316 44.9694,68.8983 40,67.5C 34.8104,68.3428 29.9771,70.1761 25.5,73C 22.0074,74.0037 18.8408,73.5037 16,71.5C 16,64.1667 16,56.8333 16,49.5C 12.3333,45.1667 8.66667,40.8333 5,36.5C 2.70909,33.1653 3.20909,30.332 6.5,28C 12.8498,26.331 19.1832,24.6644 25.5,23C 29.3026,17.2228 32.9692,11.3895 36.5,5.5 Z"/></g>
</svg>
