<?xml version="1.0" encoding="UTF-8"?>
<!DOCTYPE svg PUBLIC "-//W3C//DTD SVG 1.1//EN" "http://www.w3.org/Graphics/SVG/1.1/DTD/svg11.dtd">
<svg xmlns="http://www.w3.org/2000/svg" version="1.1" width="80px" height="80px" style="shape-rendering:geometricPrecision; text-rendering:geometricPrecision; image-rendering:optimizeQuality; fill-rule:evenodd; clip-rule:evenodd" xmlns:xlink="http://www.w3.org/1999/xlink">
<g><path style="opacity:0.928" fill="#fefffe" d="M 37.5,2.5 C 38.8734,2.34332 40.2068,2.50999 41.5,3C 43.417,5.49848 45.0836,8.16514 46.5,11C 49.9364,11.692 53.2698,12.692 56.5,14C 57.5536,15.3876 57.7203,16.8876 57,18.5C 54.9565,20.208 53.2899,22.208 52,24.5C 51.9594,28.4301 51.7927,32.2634 51.5,36C 47.3303,36.8317 43.497,35.9984 40,33.5C 36.0719,35.5507 31.9052,36.5507 27.5,36.5C 27.2108,32.8936 27.5442,29.3936 28.5,26C 25.7625,22.9326 23.4292,19.5993 21.5,16C 21.8198,14.3468 22.8198,13.3468 24.5,13C 31.6669,12.9991 36.0002,9.49913 37.5,2.5 Z"/></g>
<g><path style="opacity:0.928" fill="#fefffe" d="M 17.5,42.5 C 18.8734,42.3433 20.2068,42.51 21.5,43C 23.417,45.4985 25.0836,48.1651 26.5,51C 29.9364,51.692 33.2698,52.692 36.5,54C 37.5536,55.3876 37.7203,56.8876 37,58.5C 34.9565,60.208 33.2899,62.208 32,64.5C 31.9594,68.4301 31.7927,72.2634 31.5,76C 27.3303,76.8317 23.497,75.9984 20,73.5C 16.0719,75.5507 11.9052,76.5507 7.5,76.5C 7.21083,72.8936 7.54416,69.3936 8.5,66C 5.76255,62.9326 3.42921,59.5993 1.5,56C 1.81978,54.3468 2.81978,53.3468 4.5,53C 11.6669,52.9991 16.0002,49.4991 17.5,42.5 Z"/></g>
<g><path style="opacity:0.928" fill="#fefffe" d="M 57.5,42.5 C 58.8734,42.3433 60.2068,42.51 61.5,43C 63.417,45.4985 65.0836,48.1651 66.5,51C 69.9364,51.692 73.2698,52.692 76.5,54C 77.5536,55.3876 77.7203,56.8876 77,58.5C 74.9565,60.208 73.2899,62.208 72,64.5C 71.9594,68.4301 71.7927,72.2634 71.5,76C 67.3303,76.8317 63.497,75.9984 60,73.5C 56.0719,75.5507 51.9052,76.5507 47.5,76.5C 47.2108,72.8936 47.5442,69.3936 48.5,66C 45.7625,62.9326 43.4292,59.5993 41.5,56C 41.8198,54.3468 42.8198,53.3468 44.5,53C 51.6669,52.9991 56.0002,49.4991 57.5,42.5 Z"/></g>
</svg>
